<!-- Generated by IcoMoon.io -->
<svg version="1.1" xmlns="http://www.w3.org/2000/svg" width="32" height="32" viewBox="0 0 32 32">
<title>heart-solid</title>
<path d="M2.975 18.775l11.294 10.544c0.469 0.438 1.088 0.681 1.731 0.681s1.263-0.244 1.731-0.681l11.294-10.544c1.9-1.769 2.975-4.25 2.975-6.844v-0.363c0-4.369-3.156-8.094-7.462-8.813-2.85-0.475-5.75 0.456-7.788 2.494l-0.75 0.75-0.75-0.75c-2.037-2.038-4.938-2.969-7.787-2.494-4.306 0.719-7.463 4.444-7.463 8.813v0.363c0 2.594 1.075 5.075 2.975 6.844z"></path>
</svg>
