<!-- Generated by IcoMoon.io -->
<svg version="1.1" xmlns="http://www.w3.org/2000/svg" width="24" height="32" viewBox="0 0 24 32">
<title>xmark-solid</title>
<path d="M21.413 9.412c0.781-0.781 0.781-2.050 0-2.831s-2.050-0.781-2.831 0l-6.581 6.587-6.588-6.581c-0.781-0.781-2.050-0.781-2.831 0s-0.781 2.050 0 2.831l6.587 6.581-6.581 6.587c-0.781 0.781-0.781 2.050 0 2.831s2.050 0.781 2.831 0l6.581-6.588 6.587 6.581c0.781 0.781 2.050 0.781 2.831 0s0.781-2.050 0-2.831l-6.588-6.581 6.581-6.588z"></path>
</svg>
