<svg aria-hidden="true" style="position: absolute; width: 0; height: 0; overflow: hidden;" version="1.1" xmlns="http://www.w3.org/2000/svg" xmlns:xlink="http://www.w3.org/1999/xlink">
<defs>
<symbol id="icon-facebook-f" viewBox="0 0 20 32">
<path d="M5 18.706v13.294h7.25v-13.294h5.406l1.125-6.113h-6.531v-2.162c0-3.231 1.269-4.469 4.544-4.469 1.019 0 1.837 0.025 2.313 0.075v-5.544c-0.894-0.244-3.081-0.494-4.344-0.494-6.681 0-9.762 3.156-9.762 9.963v2.631h-4.125v6.113h4.125z"></path>
</symbol>
<symbol id="icon-instagram" viewBox="0 0 28 32">
<path d="M14.006 8.813c-3.975 0-7.181 3.206-7.181 7.181s3.206 7.181 7.181 7.181 7.181-3.206 7.181-7.181-3.206-7.181-7.181-7.181zM14.006 20.663c-2.569 0-4.669-2.094-4.669-4.669s2.094-4.669 4.669-4.669 4.669 2.094 4.669 4.669-2.1 4.669-4.669 4.669zM23.156 8.519c0 0.931-0.75 1.675-1.675 1.675-0.931 0-1.675-0.75-1.675-1.675s0.75-1.675 1.675-1.675 1.675 0.75 1.675 1.675zM27.913 10.219c-0.106-2.244-0.619-4.231-2.262-5.869-1.637-1.638-3.625-2.15-5.869-2.263-2.313-0.131-9.244-0.131-11.556 0-2.237 0.106-4.225 0.619-5.869 2.256s-2.15 3.625-2.263 5.869c-0.131 2.313-0.131 9.244 0 11.556 0.106 2.244 0.619 4.231 2.263 5.869s3.625 2.15 5.869 2.262c2.313 0.131 9.244 0.131 11.556 0 2.244-0.106 4.231-0.619 5.869-2.262 1.637-1.637 2.15-3.625 2.262-5.869 0.131-2.313 0.131-9.238 0-11.55zM24.925 24.25c-0.488 1.225-1.431 2.169-2.663 2.663-1.844 0.731-6.219 0.563-8.256 0.563s-6.419 0.163-8.256-0.563c-1.225-0.488-2.169-1.431-2.663-2.663-0.731-1.844-0.563-6.219-0.563-8.256s-0.163-6.419 0.563-8.256c0.487-1.225 1.431-2.169 2.663-2.662 1.844-0.731 6.219-0.563 8.256-0.563s6.419-0.162 8.256 0.563c1.225 0.487 2.169 1.431 2.663 2.662 0.731 1.844 0.563 6.219 0.563 8.256s0.169 6.419-0.563 8.256z"></path>
</symbol>
<symbol id="icon-linkedin-in" viewBox="0 0 28 32">
<path d="M6.269 28h-5.806v-18.694h5.806zM3.362 6.756c-1.856 0-3.362-1.537-3.362-3.394s1.505-3.362 3.362-3.362 3.362 1.505 3.362 3.362v0c0 1.856-1.506 3.394-3.362 3.394zM27.994 28h-5.794v-9.1c0-2.169-0.044-4.95-3.019-4.95-3.019 0-3.481 2.356-3.481 4.794v9.256h-5.8v-18.694h5.569v2.55h0.081c0.775-1.469 2.669-3.019 5.494-3.019 5.875 0 6.956 3.869 6.956 8.894v10.269z"></path>
</symbol>
<symbol id="icon-x-twitter" viewBox="0 0 32 32">
<path d="M24.325 3h4.412l-9.637 11.012 11.338 14.988h-8.875l-6.956-9.087-7.95 9.087h-4.419l10.306-11.781-10.869-14.219h9.1l6.281 8.306 7.269-8.306zM22.775 26.363h2.444l-15.775-20.863h-2.625l15.956 20.863z"></path>
</symbol>
<symbol id="icon-cart-shopping-solid" viewBox="0 0 36 32">
<path d="M0 1.5c0-0.831 0.669-1.5 1.5-1.5h2.844c1.375 0 2.594 0.8 3.162 2h25.688c1.644 0 2.844 1.563 2.413 3.15l-2.563 9.519c-0.531 1.963-2.313 3.331-4.344 3.331h-18.031l0.338 1.781c0.137 0.706 0.756 1.219 1.475 1.219h18.019c0.831 0 1.5 0.669 1.5 1.5s-0.669 1.5-1.5 1.5h-18.019c-2.162 0-4.019-1.538-4.419-3.656l-3.225-16.938c-0.044-0.237-0.25-0.406-0.494-0.406h-2.844c-0.831 0-1.5-0.669-1.5-1.5zM8 29c0-1.657 1.343-3 3-3s3 1.343 3 3v0c0 1.657-1.343 3-3 3s-3-1.343-3-3v0zM29 26c1.657 0 3 1.343 3 3s-1.343 3-3 3v0c-1.657 0-3-1.343-3-3s1.343-3 3-3v0z"></path>
</symbol>
<symbol id="icon-heart-solid" viewBox="0 0 32 32">
<path d="M2.975 18.775l11.294 10.544c0.469 0.438 1.088 0.681 1.731 0.681s1.263-0.244 1.731-0.681l11.294-10.544c1.9-1.769 2.975-4.25 2.975-6.844v-0.363c0-4.369-3.156-8.094-7.462-8.813-2.85-0.475-5.75 0.456-7.788 2.494l-0.75 0.75-0.75-0.75c-2.037-2.038-4.938-2.969-7.787-2.494-4.306 0.719-7.463 4.444-7.463 8.813v0.363c0 2.594 1.075 5.075 2.975 6.844z"></path>
</symbol>
<symbol id="icon-user-solid" viewBox="0 0 28 32">
<path d="M14 16c4.418 0 8-3.582 8-8s-3.582-8-8-8v0c-4.418 0-8 3.582-8 8s3.582 8 8 8v0zM11.144 19c-6.156 0-11.144 4.988-11.144 11.144 0 1.025 0.831 1.856 1.856 1.856h24.288c1.025 0 1.856-0.831 1.856-1.856 0-6.156-4.988-11.144-11.144-11.144h-5.713z"></path>
</symbol>
</defs>
</svg>
